<svg width="221" height="54" viewBox="0 0 221 54" fill="none" xmlns="http://www.w3.org/2000/svg">
<path d="M64.2717 31.5814V25.1502H71.2447C71.5588 25.1568 71.8695 25.0853 72.1492 24.9422C72.2713 24.8795 72.3726 24.7827 72.4408 24.6636C72.5091 24.5444 72.5413 24.4081 72.5336 24.271C72.5426 24.1317 72.5111 23.9928 72.4429 23.871C72.3747 23.7491 72.2727 23.6497 72.1492 23.5845C71.8695 23.4418 71.5587 23.3706 71.2447 23.3774H64.2717V21.0392H71.7214C72.1954 21.0358 72.6673 21.1028 73.1216 21.2382C73.5292 21.3597 73.9105 21.5564 74.2459 21.818C74.5675 22.0722 74.8317 22.3915 75.0211 22.7551C75.2298 23.1561 75.3632 23.5921 75.4145 24.0413V24.4881C75.3223 25.4723 74.9327 26.2179 74.2459 26.725C73.5591 27.2322 72.6244 27.4866 71.4419 27.4884L75.4607 31.5814H72L67.8753 27.4884H67.1047V31.5814H64.2717Z" fill="#2ABC69"/>
<path d="M82.1244 27.9026L79.7401 31.5813H76.6648L79.9391 26.3215L76.6611 21.0391H79.7365L82.1208 24.7169L84.4916 21.0391H87.567L84.2645 26.3215L87.5724 31.5822H84.497L82.1244 27.9026Z" fill="#2ABC69"/>
<path d="M96.6691 31.5813L93.9591 23.5925L91.2519 31.5813H88.4343L92.0515 21.0391H95.8677L99.5012 31.5813H96.6691Z" fill="#2ABC69"/>
<path d="M106.124 27.9029C106.124 28.3461 106.239 28.679 106.47 28.9042C106.7 29.1294 107.031 29.2434 107.465 29.2434H114.453V31.5816H106.985C106.479 31.5873 105.975 31.5121 105.493 31.3591C105.063 31.2229 104.666 30.9973 104.33 30.697C104.001 30.3956 103.744 30.0248 103.576 29.6115C103.389 29.1417 103.297 28.6393 103.305 28.1335V24.4883C103.296 23.9846 103.388 23.4841 103.576 23.0167C103.746 22.6072 104.003 22.2398 104.33 21.9403C104.667 21.6393 105.063 21.4112 105.493 21.27C105.974 21.1115 106.478 21.0336 106.985 21.0394H114.45V23.3776H107.462C107.031 23.3776 106.7 23.4912 106.467 23.7186C106.236 23.9438 106.121 24.2785 106.121 24.7135L106.124 27.9029Z" fill="black"/>
<path d="M116.35 23.0167C116.52 22.6072 116.777 22.2398 117.104 21.9403C117.441 21.6395 117.837 21.4114 118.266 21.27C118.748 21.1117 119.252 21.0337 119.759 21.0394H123.531C124.037 21.0336 124.542 21.1115 125.023 21.27C125.454 21.4124 125.852 21.6403 126.193 21.9403C126.524 22.2378 126.784 22.6056 126.954 23.0167C127.143 23.484 127.235 23.9845 127.226 24.4883V28.1308C127.234 28.6366 127.142 29.1391 126.954 29.6088C126.786 30.0238 126.526 30.3951 126.193 30.6942C125.853 30.9936 125.455 31.219 125.023 31.3563C124.541 31.5094 124.037 31.5845 123.531 31.5789H119.759C119.252 31.5845 118.748 31.5094 118.265 31.3563C117.836 31.22 117.44 30.9944 117.103 30.6942C116.774 30.393 116.516 30.0222 116.349 29.6088C116.162 29.1388 116.07 28.6365 116.077 28.1308V24.4883C116.069 23.9845 116.162 23.4842 116.35 23.0167ZM124.392 24.7172C124.392 24.2785 124.278 23.9438 124.045 23.7222C123.813 23.5006 123.485 23.3812 123.05 23.3812H120.246C119.817 23.3812 119.485 23.4948 119.251 23.7222C119.021 23.9474 118.906 24.2821 118.906 24.7172V27.9029C118.906 28.3461 119.021 28.679 119.251 28.9042C119.482 29.1294 119.814 29.2434 120.246 29.2434H123.05C123.482 29.2434 123.813 29.1294 124.045 28.9042C124.278 28.679 124.392 28.3461 124.392 27.9029V24.7172Z" fill="black"/>
<path d="M139.998 31.5813H137.135L131.687 25.0425V31.5813H128.855V21.0391H131.733L137.166 27.5806V21.0391H139.998V31.5813Z" fill="black"/>
<path d="M141.628 31.5809V29.2427H148.601C148.915 29.2495 149.226 29.1783 149.506 29.0355C149.762 28.8975 149.89 28.6686 149.89 28.349C149.897 28.2323 149.874 28.1158 149.823 28.0108C149.772 27.9057 149.694 27.8156 149.598 27.7493C149.386 27.6088 149.144 27.5193 148.891 27.4879H145.32C144.846 27.4917 144.373 27.4265 143.918 27.2943C143.507 27.1772 143.124 26.9816 142.788 26.7182C142.465 26.46 142.196 26.1406 141.997 25.7784C141.787 25.3796 141.662 24.9417 141.628 24.4921V24.0453C141.681 23.5963 141.814 23.1604 142.022 22.7591C142.212 22.3954 142.477 22.0761 142.799 21.822C143.132 21.5615 143.51 21.3649 143.914 21.2422C144.371 21.1057 144.846 21.0387 145.323 21.0432H152.774V23.3814H145.8C145.486 23.3746 145.175 23.4457 144.896 23.5885C144.639 23.7278 144.51 23.9576 144.51 24.275C144.504 24.3931 144.527 24.5108 144.576 24.6181C144.626 24.7254 144.7 24.8191 144.794 24.891C145.001 25.0398 145.243 25.1307 145.496 25.1542H149.083C149.556 25.1501 150.028 25.2144 150.483 25.3451C150.892 25.4619 151.276 25.6552 151.613 25.9149C151.939 26.1691 152.206 26.4895 152.399 26.8547C152.605 27.2517 152.732 27.6848 152.774 28.1301V28.5824C152.723 29.0307 152.59 29.4658 152.381 29.8659C152.191 30.2308 151.927 30.5517 151.604 30.8075C151.268 31.0663 150.887 31.2615 150.481 31.3837C150.027 31.5202 149.555 31.5873 149.081 31.5827L141.628 31.5809Z" fill="black"/>
<path d="M165.546 23.3773H161.39V31.5813H158.563V23.3773H154.402V21.0391H165.546V23.3773Z" fill="black"/>
<path d="M167.176 31.5814V25.1502H174.149C174.463 25.1571 174.774 25.0856 175.053 24.9422C175.175 24.8795 175.277 24.7827 175.345 24.6636C175.413 24.5444 175.445 24.4081 175.438 24.271C175.447 24.1317 175.415 23.9928 175.347 23.871C175.279 23.7491 175.177 23.6497 175.053 23.5845C174.774 23.4415 174.463 23.3703 174.149 23.3774H167.176V21.0392H174.625C175.1 21.0359 175.572 21.103 176.027 21.2382C176.434 21.3599 176.815 21.5565 177.15 21.818C177.472 22.0722 177.736 22.3915 177.925 22.7551C178.134 23.1559 178.268 23.592 178.319 24.0413V24.4881C178.226 25.4722 177.836 26.2179 177.15 26.725C176.464 27.2321 175.529 27.4866 174.346 27.4884L178.363 31.5814H174.9L170.776 27.4884H170.005V31.5814H167.176Z" fill="black"/>
<path d="M188.262 27.9026V21.0391H191.094V28.1305C191.102 28.6363 191.01 29.1386 190.823 29.6085C190.654 30.0234 190.393 30.3946 190.06 30.6939C189.721 30.9935 189.323 31.219 188.892 31.356C188.409 31.5091 187.905 31.5842 187.398 31.5786H183.628C183.122 31.5842 182.618 31.5091 182.135 31.356C181.705 31.2199 181.309 30.9943 180.972 30.6939C180.643 30.3929 180.385 30.0221 180.218 29.6085C180.031 29.1385 179.939 28.6362 179.947 28.1305V21.0391H182.779V27.9026C182.779 28.3458 182.895 28.6787 183.126 28.9039C183.358 29.1291 183.687 29.2431 184.121 29.2431H186.925C187.356 29.2431 187.687 29.1291 187.92 28.9039C188.153 28.6787 188.262 28.3458 188.262 27.9026Z" fill="black"/>
<path d="M195.54 27.9029C195.54 28.3461 195.656 28.679 195.887 28.9042C196.118 29.1294 196.449 29.2434 196.882 29.2434H203.87V31.5816H196.405C195.899 31.5872 195.395 31.5121 194.912 31.3591C194.482 31.2229 194.086 30.9973 193.75 30.6969C193.42 30.3961 193.163 30.0252 192.996 29.6115C192.809 29.1416 192.717 28.6393 192.725 28.1335V24.4883C192.716 23.9845 192.808 23.4841 192.996 23.0166C193.165 22.6069 193.422 22.2393 193.75 21.9403C194.087 21.6393 194.482 21.4111 194.912 21.27C195.394 21.1116 195.898 21.0336 196.405 21.0394H203.87V23.3776H196.882C196.451 23.3776 196.12 23.4912 195.887 23.7186C195.656 23.9438 195.54 24.2785 195.54 24.7135V27.9029Z" fill="black"/>
<path d="M216.641 23.3773H212.486V31.5813H209.653V23.3773H205.499V21.0391H216.641V23.3773Z" fill="black"/>
<path d="M25.8396 2.16992V18.5852H28.5658V6.73414L40.4142 12.8279V29.6683L43.1413 29.1383V11.0107L25.8396 2.16992Z" fill="black"/>
<path d="M35.394 42.2527C30.3459 44.6777 25.3611 46.0517 21.241 46.3665C20.3064 46.4413 19.368 46.4564 18.4315 46.4117C15.1382 46.2308 12.7068 45.1861 11.7643 43.2278C10.3171 40.2076 12.7448 35.7953 17.5659 31.6499V29.7188C9.54731 35.476 5.14228 42.0899 7.19465 46.3602C9.91635 52.0297 22.9804 51.4119 36.3754 44.9826C37.753 44.3205 39.07 43.6122 40.3427 42.8895V39.512C38.7466 40.519 37.0944 41.434 35.394 42.2527Z" fill="#2ABC69"/>
<path d="M18.4314 17.3633V46.4111C19.3679 46.4558 20.3063 46.4407 21.2408 46.3659V17.3633H18.4314Z" fill="black"/>
<path d="M35.6074 17.3633H18.4314V20.1727H35.6074V17.3633Z" fill="black"/>
<path d="M55.7052 23.0725C53.9939 19.4987 48.1633 18.4404 40.7435 19.7411L42.4811 21.2318C46.6772 21.088 49.8349 22.1254 50.9357 24.422C52.5711 27.8294 49.2732 33.015 43.1568 37.5846V11.9785H40.3528V42.8888C41.3197 42.3361 42.2622 41.7717 43.1568 41.1919C52.5295 35.1243 57.9331 27.7136 55.7052 23.0725Z" fill="black"/>
<path d="M37.5785 23.5508H23.7891V26.7456H37.5785V23.5508Z" fill="#2ABC69"/>
<path d="M37.5785 29.8848H23.7891V33.0823H37.5785V29.8848Z" fill="#2ABC69"/>
<path d="M37.5785 36.2188H23.7891V39.4144H37.5785V36.2188Z" fill="#2ABC69"/>
</svg>
