<svg width="299" height="21" viewBox="0 0 299 21" fill="none" xmlns="http://www.w3.org/2000/svg">
<path d="M0.4729 20.4831V8.04436H14.0926C14.7061 8.05696 15.3131 7.91871 15.8593 7.64199C16.0978 7.52064 16.2957 7.33345 16.4289 7.10306C16.5622 6.87267 16.6252 6.60897 16.6102 6.34388C16.6277 6.07441 16.5662 5.80567 16.433 5.57006C16.2997 5.33446 16.1005 5.14204 15.8593 5.01603C15.3129 4.73991 14.7059 4.60226 14.0926 4.6154H0.4729V0.0930121H15.0237C15.9495 0.0864274 16.8712 0.216141 17.7586 0.477898C18.5547 0.712956 19.2995 1.09329 19.9546 1.59932C20.5828 2.09093 21.0988 2.70861 21.4687 3.41176C21.8765 4.18745 22.137 5.03067 22.2372 5.89951V6.76375C22.057 8.66717 21.2961 10.1093 19.9546 11.0902C18.6131 12.0711 16.7875 12.5633 14.4778 12.5668L22.3273 20.4831H15.5678L7.51154 12.5668H6.00629V20.4831H0.4729Z" fill="#2ABC69"/>
<path d="M35.3429 13.3678L30.6858 20.4829H24.6789L31.0744 10.3097L24.6718 0.0927734H30.6787L35.3358 7.20613L39.9664 0.0927734H45.9733L39.5229 10.3097L45.9839 20.4846H39.977L35.3429 13.3678Z" fill="#2ABC69"/>
<path d="M63.7518 20.4829L58.4587 5.03154L53.1709 20.4829H47.6675L54.7327 0.0927734H62.1865L69.2835 20.4829H63.7518Z" fill="#2ABC69"/>
<path d="M82.2194 13.3674C82.2194 14.2246 82.4438 14.8684 82.8943 15.304C83.3448 15.7397 83.9915 15.9601 84.8377 15.9601H98.4875V20.4825H83.9014C82.9127 20.4935 81.9287 20.3482 80.9863 20.0521C80.1461 19.7888 79.3718 19.3524 78.7142 18.7715C78.0722 18.1887 77.5695 17.4715 77.2426 16.6721C76.8767 15.7633 76.6966 14.7917 76.7125 13.8135V6.76311C76.6954 5.78878 76.8756 4.82092 77.2426 3.91673C77.574 3.12482 78.0763 2.41425 78.7142 1.83485C79.3736 1.25276 80.147 0.811472 80.9863 0.538501C81.9265 0.231925 82.9115 0.0811843 83.9014 0.0923774H98.4822V4.61477H84.8324C83.9915 4.61477 83.3437 4.83461 82.889 5.27431C82.4385 5.70993 82.2141 6.35723 82.2141 7.19873L82.2194 13.3674Z" fill="black"/>
<path d="M102.192 3.91673C102.524 3.12473 103.027 2.41419 103.666 1.83485C104.325 1.25313 105.097 0.811873 105.936 0.538501C106.876 0.232237 107.861 0.0815041 108.851 0.0923774H116.218C117.208 0.0811843 118.193 0.231925 119.133 0.538501C119.975 0.813792 120.752 1.25473 121.418 1.83485C122.064 2.41033 122.572 3.12164 122.905 3.91673C123.273 4.82068 123.453 5.78871 123.435 6.76311V13.8082C123.452 14.7865 123.272 15.7583 122.905 16.6669C122.577 17.4696 122.068 18.1876 121.418 18.7662C120.754 19.3452 119.976 19.7813 119.133 20.0468C118.191 20.3429 117.207 20.4882 116.218 20.4772H108.851C107.862 20.4882 106.877 20.3429 105.934 20.0468C105.095 19.7832 104.321 19.3468 103.664 18.7662C103.021 18.1835 102.518 17.4664 102.191 16.6669C101.826 15.7578 101.645 14.7864 101.66 13.8082V6.76311C101.645 5.78873 101.826 4.82104 102.192 3.91673ZM117.9 7.20573C117.9 6.35724 117.678 5.70994 117.224 5.28131C116.77 4.85269 116.128 4.62176 115.28 4.62176H109.803C108.965 4.62176 108.317 4.84161 107.86 5.28131C107.409 5.71693 107.185 6.36424 107.185 7.20573V13.3674C107.185 14.2246 107.409 14.8684 107.86 15.304C108.31 15.7396 108.959 15.9601 109.803 15.9601H115.28C116.123 15.9601 116.77 15.7396 117.224 15.304C117.678 14.8684 117.9 14.2246 117.9 13.3674V7.20573Z" fill="black"/>
<path d="M148.383 20.4829H142.79L132.149 7.83594V20.4829H126.617V0.0927734H132.239L142.852 12.745V0.0927734H148.383V20.4829Z" fill="black"/>
<path d="M151.567 20.4833V15.9609H165.187C165.8 15.9741 166.407 15.8364 166.953 15.5603C167.453 15.2932 167.703 14.8506 167.704 14.2324C167.718 14.0068 167.673 13.7815 167.573 13.5782C167.473 13.375 167.322 13.2008 167.134 13.0725C166.719 12.8007 166.246 12.6277 165.752 12.567H158.777C157.851 12.5743 156.928 12.4482 156.039 12.1926C155.237 11.9661 154.488 11.5876 153.832 11.0782C153.201 10.5789 152.677 9.96118 152.288 9.26045C151.877 8.48918 151.632 7.64225 151.567 6.77271V5.90847C151.669 5.03998 151.929 4.19705 152.336 3.42072C152.707 2.7174 153.224 2.09975 153.853 1.60827C154.503 1.10447 155.242 0.724247 156.032 0.48685C156.924 0.222984 157.852 0.0932543 158.784 0.101975H173.337V4.62435H159.715C159.102 4.61121 158.495 4.74886 157.948 5.02498C157.447 5.2944 157.196 5.73877 157.196 6.35283C157.184 6.58109 157.228 6.80883 157.325 7.0164C157.421 7.22397 157.567 7.40512 157.751 7.54422C158.154 7.832 158.627 8.00777 159.122 8.05331H166.127C167.051 8.04527 167.973 8.16961 168.862 8.42246C169.661 8.64835 170.411 9.02234 171.07 9.52462C171.705 10.0163 172.228 10.6358 172.603 11.3423C173.006 12.1102 173.255 12.9477 173.337 13.8091V14.6838C173.237 15.5509 172.977 16.3925 172.57 17.1663C172.199 17.8722 171.682 18.4927 171.052 18.9875C170.395 19.488 169.652 19.8657 168.858 20.1019C167.971 20.366 167.049 20.4957 166.123 20.4868L151.567 20.4833Z" fill="black"/>
<path d="M198.283 4.61516H190.167V20.4829H184.644V4.61516H176.517V0.0927734H198.283V4.61516Z" fill="black"/>
<path d="M201.467 20.4831V8.04434H215.086C215.7 8.05753 216.307 7.91925 216.853 7.64197C217.091 7.52062 217.289 7.33343 217.423 7.10304C217.556 6.87266 217.619 6.60895 217.604 6.34386C217.621 6.0744 217.56 5.80565 217.427 5.57004C217.293 5.33444 217.094 5.14203 216.853 5.01601C216.307 4.73934 215.7 4.60166 215.086 4.61539H201.467V0.0929954H216.017C216.944 0.0866511 217.866 0.216358 218.754 0.477881C219.549 0.713331 220.294 1.09364 220.948 1.5993C221.576 2.09091 222.092 2.70859 222.462 3.41175C222.871 4.18712 223.131 5.03049 223.231 5.89949V6.76373C223.05 8.66716 222.289 10.1093 220.948 11.0902C219.608 12.0711 217.782 12.5632 215.471 12.5667L223.317 20.4831H216.553L208.498 12.5667H206.993V20.4831H201.467Z" fill="black"/>
<path d="M242.652 13.3678V0.0927734H248.184V13.8086C248.2 14.7868 248.02 15.7585 247.654 16.6673C247.325 17.4698 246.815 18.1876 246.165 18.7666C245.502 19.346 244.725 19.7821 243.882 20.0472C242.939 20.3433 241.954 20.4886 240.965 20.4776H233.601C232.612 20.4885 231.628 20.3432 230.685 20.0472C229.845 19.7839 229.071 19.3475 228.414 18.7666C227.771 18.1844 227.268 17.4671 226.941 16.6673C226.576 15.7582 226.396 14.7868 226.411 13.8086V0.0927734H231.943V13.3678C231.943 14.225 232.169 14.8688 232.621 15.3044C233.073 15.74 233.716 15.9605 234.564 15.9605H240.041C240.882 15.9605 241.529 15.74 241.985 15.3044C242.44 14.8688 242.652 14.225 242.652 13.3678Z" fill="black"/>
<path d="M256.869 13.3674C256.869 14.2246 257.095 14.8684 257.546 15.304C257.997 15.7396 258.643 15.9601 259.489 15.9601H273.139V20.4825H258.558C257.569 20.4933 256.585 20.348 255.641 20.0521C254.802 19.7888 254.028 19.3523 253.371 18.7715C252.728 18.1897 252.225 17.4722 251.9 16.6721C251.534 15.7633 251.354 14.7917 251.37 13.8135V6.7631C251.352 5.78876 251.533 4.82091 251.9 3.91672C252.23 3.12411 252.732 2.41329 253.371 1.83484C254.03 1.25275 254.803 0.811447 255.641 0.538488C256.582 0.232034 257.568 0.081299 258.558 0.0923647H273.139V4.61475H259.489C258.648 4.61475 258.001 4.8346 257.546 5.2743C257.095 5.70992 256.869 6.35722 256.869 7.19872V13.3674Z" fill="black"/>
<path d="M298.084 4.61516H289.967V20.4829H284.434V4.61516H276.319V0.0927734H298.084V4.61516Z" fill="black"/>
</svg>
